<?xml version="1.0" standalone="no"?><!DOCTYPE svg PUBLIC "-//W3C//DTD SVG 1.1//EN" "http://www.w3.org/Graphics/SVG/1.1/DTD/svg11.dtd"><svg t="1534771789601" class="icon" style="" viewBox="0 0 1024 1024" version="1.1" xmlns="http://www.w3.org/2000/svg" p-id="1957" xmlns:xlink="http://www.w3.org/1999/xlink" width="200" height="200"><defs><style type="text/css"></style></defs><path d="M1000.0384 498.3808h-50.9952L866.5088 361.3696c-0.2048-0.2048-0.2048-0.4096-0.6144-0.6144 0-0.2048 0-0.4096-0.2048-0.4096-0.4096-0.6144-0.9216-1.1264-1.536-1.536-0.6144-0.6144-1.3312-0.9216-2.1504-1.1264-0.2048-0.4096-0.6144-0.4096-1.1264-0.6144h-0.4096l-221.184-70.8608c66.048-40.96 97.3824-81.3056 97.9968-82.1248 0.8192-1.1264 1.1264-2.3552 0.9216-3.6864-0.2048-1.3312-0.9216-2.56-1.9456-3.2768-2.1504-1.7408-5.4272-1.1264-6.9632 0.9216-0.6144 0.8192-33.28 42.7008-102.4 84.0704l-112.64-35.9424c-1.9456-0.6144-4.096-0.6144-5.9392 0l-8.9088 2.6624L259.072 325.8368h-125.0304c-13.5168 0.9216-24.1664 12.1856-24.1664 25.9072s10.6496 24.8832 24.1664 25.9072h12.8l-41.3696 69.12h-79.5648c-14.336 0-25.9072 11.5712-25.9072 25.9072s11.5712 25.9072 25.9072 25.9072h48.8448l-20.8896 35.0208c-1.3312 2.3552-1.7408 5.2224-1.1264 7.68 0.8192 2.56 2.56 4.8128 5.0176 6.144l84.2752 44.032v132.3008c0 3.6864 1.9456 6.9632 5.2224 8.704l3.2768 1.7408 321.3312 180.4288c1.536 3.8912 5.2224 6.3488 9.4208 6.3488 0.8192 0 1.3312 0 2.1504-0.2048h0.2048c0.8192 0 1.536 0.2048 2.6624 0.2048 1.536 0 2.8672-0.4096 4.4032-0.9216l369.664-183.5008 2.1504-0.9216c3.4816-1.536 5.632-5.0176 5.632-8.9088v-69.5296l57.344 1.1264c14.336 0.4096 26.112-11.0592 26.3168-25.2928 0.4096-14.336-11.0592-26.112-25.2928-26.3168l-58.368-1.1264v-28.16l65.7408-27.4432h66.4576C1013.76 548.7616 1024 537.6 1024 524.288c-0.2048-13.5168-10.4448-24.7808-23.9616-25.9072z" fill="#9C9C9C" p-id="1958"></path><path d="M827.4944 367.4112l-313.0368 117.248V342.6304c35.1232-10.8544 69.12-25.2928 101.5808-42.9056l211.456 67.6864z m-312.9344-35.2256V267.264l88.2688 28.3648c-28.2624 14.5408-57.7536 26.9312-88.2688 36.5568zM494.592 271.5648v66.6624c-40.5504 11.3664-86.3232 19.6608-138.5472 22.6304-2.6624 0.2048-4.8128 2.56-4.8128 5.2224 0.2048 2.6624 2.3552 4.608 5.0176 4.608h0.2048c46.7968-2.56 92.9792-9.8304 137.9328-22.2208v143.7696l-16.7936 6.144-285.184-130.2528L494.592 271.5648zM76.4928 534.528l92.3648-154.9312 298.2912 135.9872-81.7152 181.0432L157.696 577.024l-81.2032-42.496z" fill="#9C9C9C" p-id="1959"></path><path d="M385.8432 719.2576c2.3552 1.3312 5.2224 1.536 7.68 0.6144 2.6624-0.9216 4.8128-2.8672 5.9392-5.4272l71.68-158.6176v335.5648l-309.1456-173.1584V601.9072l223.8464 117.3504z m461.9264 1.536l-356.6592 176.7424V541.4912l98.9184 143.5648c2.6624 4.096 7.68 5.4272 12.1856 3.6864L847.7696 585.9328v134.8608z" fill="#9C9C9C" p-id="1960"></path><path d="M854.016 561.7664c-0.6144 0.2048-1.1264 0.4096-1.7408 0.8192L602.112 667.3408 495.8208 513.024 853.6064 378.9824l88.064 146.0224L854.016 561.7664z" fill="#9C9C9C" p-id="1961"></path><path d="M486.0928 921.2928c-0.9216 0-1.7408-0.2048-2.6624-0.2048-0.8192 0.2048-1.3312 0.2048-2.1504 0.2048-4.3008 0-7.8848-2.56-9.4208-6.3488l-321.3312-180.224c-16.7936 16.0768-26.4192 33.3824-26.4192 51.6096 0 78.0288 170.1888 141.4144 380.2112 141.4144S884.5312 864.256 884.5312 786.2272c0-17.408-8.9088-33.9968-24.3712-49.4592l-369.5616 183.5008c-1.4336 0.6144-2.9696 0.8192-4.5056 1.024z" fill="#E5E5E4" p-id="1962"></path><path d="M853.6064 378.9824L495.8208 513.024 602.112 667.2384 852.2752 562.4832c0.6144-0.4096 1.1264-0.6144 1.7408-0.8192l87.7568-36.6592-88.1664-146.0224z" fill="#FFFFFF" p-id="1963"></path><path d="M602.2144 688.8448c-4.4032 1.7408-9.4208 0.4096-12.1856-3.6864L491.1104 541.696v355.84L847.7696 720.7936V586.1376l-245.5552 102.7072z" fill="#E5E5E4" p-id="1964"></path><path d="M514.56 332.1856c30.5152-9.6256 60.1088-21.8112 88.2688-36.6592L514.56 267.264v64.9216z m0 152.4736L827.4944 367.4112l-211.3536-67.584c-28.3648 15.6672-62.3616 30.5152-101.5808 42.9056v141.9264z m-36.7616 13.7216l16.7936-6.144V348.4672c-40.5504 11.1616-86.2208 19.3536-137.9328 22.2208h-0.2048c-2.6624 0-4.8128-2.1504-5.0176-4.608 0-1.3312 0.4096-2.6624 1.3312-3.6864 0.9216-0.9216 2.1504-1.536 3.4816-1.536 46.7968-2.56 93.2864-10.0352 138.5472-22.6304V271.5648l-301.9776 96.5632 284.9792 130.2528z" fill="#FFFFFF" p-id="1965"></path><path d="M471.2448 891.392V555.7248l-71.68 158.6176c-1.7408 3.4816-5.2224 5.8368-9.1136 5.9392-1.536 0-3.2768-0.4096-4.608-1.1264l-223.744-117.248v116.3264l309.1456 173.1584z" fill="#E5E5E4" p-id="1966"></path><path d="M385.4336 696.6272l81.7152-181.0432-298.2912-135.9872-92.3648 154.9312 81.1008 42.7008 227.84 119.3984z" fill="#FFFFFF" p-id="1967"></path><path d="M192.8192 283.5456c296.96-12.3904 450.1504-177.152 451.4816-178.8928 1.7408-2.1504 1.7408-5.2224-0.4096-6.9632-2.1504-1.9456-5.2224-1.7408-6.9632 0.4096-1.536 1.536-151.8592 163.2256-444.7232 175.616-2.6624 0.2048-4.8128 2.56-4.8128 5.2224 0.2048 2.6624 2.3552 4.608 5.0176 4.8128h0.4096v-0.2048z" fill="#9C9C9C" p-id="1968"></path></svg>